# MagicaVoxel @ Ephtracy

# group
g Cannon supérieur droit

# material
mtllib Cannon supérieur droit.mtl
usemtl palette

# normals
vn -1 0 0
vn 1 0 0
vn 0 0 1
vn 0 0 -1
vn 0 -1 0
vn 0 1 0

# texcoords
vt 0.970703 0.5

# verts
v -24 23 4
v -24 23 2
v -24 24 2
v -24 24 1
v -24 25 1
v -24 25 -0
v -24 26 4
v -24 26 3
v -24 27 3
v -24 27 1
v -24 31 1
v -24 31 -0
v 6 27 3
v 6 27 1
v 6 29 3
v 6 29 1
v -22 29 1
v -22 29 -0
v -22 31 1
v -22 31 -0
v -20 27 1
v -20 27 -0
v -20 29 1
v -20 29 -0
v 8 27 3
v 8 27 1
v 8 29 3
v 8 29 1
v 20 23 4
v 20 23 2
v 20 24 2
v 20 24 1
v 20 25 1
v 20 25 -0
v 20 26 4
v 20 26 3
v 20 27 3
v 20 27 -0
v -24 23 4
v -24 26 4
v 20 23 4
v 20 26 4
v -24 26 3
v -24 27 3
v 6 27 3
v 6 29 3
v 8 27 3
v 8 29 3
v 20 26 3
v 20 27 3
v -24 27 1
v -24 31 1
v -22 29 1
v -22 31 1
v -20 27 1
v -20 29 1
v -24 23 2
v -24 24 2
v 20 23 2
v 20 24 2
v -24 24 1
v -24 25 1
v 6 27 1
v 6 29 1
v 8 27 1
v 8 29 1
v 20 24 1
v 20 25 1
v -24 25 -0
v -24 31 -0
v -22 29 -0
v -22 31 -0
v -20 27 -0
v -20 29 -0
v 20 25 -0
v 20 27 -0
v -24 23 4
v 20 23 4
v -24 23 2
v 20 23 2
v -24 24 2
v 20 24 2
v -24 24 1
v 20 24 1
v -24 25 1
v 20 25 1
v -24 25 -0
v 20 25 -0
v -24 26 4
v 20 26 4
v -24 26 3
v 20 26 3
v -24 27 3
v 6 27 3
v 8 27 3
v 20 27 3
v -24 27 1
v -20 27 1
v 6 27 1
v 8 27 1
v -20 27 -0
v 20 27 -0
v 6 29 3
v 8 29 3
v -22 29 1
v -20 29 1
v 6 29 1
v 8 29 1
v -22 29 -0
v -20 29 -0
v -24 31 1
v -22 31 1
v -24 31 -0
v -22 31 -0

# faces
f 3/1/1 2/1/1 1/1/1
f 5/1/1 4/1/1 3/1/1
f 7/1/1 3/1/1 1/1/1
f 7/1/1 6/1/1 5/1/1
f 7/1/1 5/1/1 3/1/1
f 8/1/1 6/1/1 7/1/1
f 9/1/1 6/1/1 8/1/1
f 10/1/1 6/1/1 9/1/1
f 11/1/1 6/1/1 10/1/1
f 12/1/1 6/1/1 11/1/1
f 15/1/1 14/1/1 13/1/1
f 16/1/1 14/1/1 15/1/1
f 17/1/2 18/1/2 19/1/2
f 19/1/2 18/1/2 20/1/2
f 21/1/2 22/1/2 23/1/2
f 23/1/2 22/1/2 24/1/2
f 25/1/2 26/1/2 27/1/2
f 27/1/2 26/1/2 28/1/2
f 29/1/2 30/1/2 31/1/2
f 31/1/2 32/1/2 33/1/2
f 29/1/2 31/1/2 35/1/2
f 33/1/2 34/1/2 35/1/2
f 31/1/2 33/1/2 35/1/2
f 35/1/2 34/1/2 36/1/2
f 36/1/2 34/1/2 37/1/2
f 37/1/2 34/1/2 38/1/2
f 41/1/3 40/1/3 39/1/3
f 42/1/3 40/1/3 41/1/3
f 45/1/3 44/1/3 43/1/3
f 47/1/3 45/1/3 43/1/3
f 47/1/3 46/1/3 45/1/3
f 48/1/3 46/1/3 47/1/3
f 49/1/3 47/1/3 43/1/3
f 50/1/3 47/1/3 49/1/3
f 53/1/3 52/1/3 51/1/3
f 54/1/3 52/1/3 53/1/3
f 55/1/3 53/1/3 51/1/3
f 56/1/3 53/1/3 55/1/3
f 57/1/4 58/1/4 59/1/4
f 59/1/4 58/1/4 60/1/4
f 63/1/4 64/1/4 65/1/4
f 65/1/4 64/1/4 66/1/4
f 61/1/4 62/1/4 67/1/4
f 67/1/4 62/1/4 68/1/4
f 69/1/4 70/1/4 71/1/4
f 71/1/4 70/1/4 72/1/4
f 69/1/4 71/1/4 73/1/4
f 73/1/4 71/1/4 74/1/4
f 69/1/4 73/1/4 75/1/4
f 75/1/4 73/1/4 76/1/4
f 79/1/5 78/1/5 77/1/5
f 80/1/5 78/1/5 79/1/5
f 83/1/5 82/1/5 81/1/5
f 84/1/5 82/1/5 83/1/5
f 87/1/5 86/1/5 85/1/5
f 88/1/5 86/1/5 87/1/5
f 89/1/6 90/1/6 91/1/6
f 91/1/6 90/1/6 92/1/6
f 93/1/6 94/1/6 97/1/6
f 97/1/6 94/1/6 98/1/6
f 98/1/6 94/1/6 99/1/6
f 95/1/6 96/1/6 100/1/6
f 98/1/6 99/1/6 101/1/6
f 99/1/6 100/1/6 101/1/6
f 100/1/6 96/1/6 102/1/6
f 101/1/6 100/1/6 102/1/6
f 103/1/6 104/1/6 107/1/6
f 107/1/6 104/1/6 108/1/6
f 105/1/6 106/1/6 109/1/6
f 109/1/6 106/1/6 110/1/6
f 111/1/6 112/1/6 113/1/6
f 113/1/6 112/1/6 114/1/6
