# MagicaVoxel @ Ephtracy

# group
g Chien

# material
mtllib Chien.mtl
usemtl palette

# normals
vn -1 0 0
vn 1 0 0
vn 0 0 1
vn 0 0 -1
vn 0 -1 0
vn 0 1 0

# texcoords
vt 0.970703 0.5

# verts
v 19 21 1
v 19 21 -1
v 19 22 2
v 19 22 1
v 19 22 -1
v 19 22 -2
v 19 25 2
v 19 25 -2
v 20 25 1
v 20 25 -1
v 20 26 1
v 20 26 -1
v 20 21 1
v 20 21 -1
v 20 22 2
v 20 22 1
v 20 22 -1
v 20 22 -2
v 20 25 2
v 20 25 1
v 20 25 -1
v 20 25 -2
v 22 22 1
v 22 22 -1
v 22 24 1
v 22 24 -1
v 24 24 1
v 24 24 -1
v 24 26 1
v 24 26 -1
v 19 22 2
v 19 25 2
v 20 22 2
v 20 25 2
v 19 21 1
v 19 22 1
v 20 21 1
v 20 22 1
v 20 25 1
v 20 26 1
v 22 22 1
v 22 24 1
v 24 24 1
v 24 26 1
v 19 21 -1
v 19 22 -1
v 20 21 -1
v 20 22 -1
v 20 25 -1
v 20 26 -1
v 22 22 -1
v 22 24 -1
v 24 24 -1
v 24 26 -1
v 19 22 -2
v 19 25 -2
v 20 22 -2
v 20 25 -2
v 19 21 1
v 20 21 1
v 19 21 -1
v 20 21 -1
v 19 22 2
v 20 22 2
v 19 22 1
v 20 22 1
v 22 22 1
v 19 22 -1
v 20 22 -1
v 22 22 -1
v 19 22 -2
v 20 22 -2
v 22 24 1
v 24 24 1
v 22 24 -1
v 24 24 -1
v 19 25 2
v 20 25 2
v 20 25 1
v 20 25 -1
v 19 25 -2
v 20 25 -2
v 20 26 1
v 24 26 1
v 20 26 -1
v 24 26 -1

# faces
f 4/1/1 2/1/1 1/1/1
f 5/1/1 2/1/1 4/1/1
f 7/1/1 4/1/1 3/1/1
f 7/1/1 6/1/1 5/1/1
f 7/1/1 5/1/1 4/1/1
f 8/1/1 6/1/1 7/1/1
f 11/1/1 10/1/1 9/1/1
f 12/1/1 10/1/1 11/1/1
f 13/1/2 14/1/2 16/1/2
f 16/1/2 14/1/2 17/1/2
f 15/1/2 16/1/2 19/1/2
f 19/1/2 16/1/2 20/1/2
f 17/1/2 18/1/2 21/1/2
f 21/1/2 18/1/2 22/1/2
f 23/1/2 24/1/2 25/1/2
f 25/1/2 24/1/2 26/1/2
f 27/1/2 28/1/2 29/1/2
f 29/1/2 28/1/2 30/1/2
f 33/1/3 32/1/3 31/1/3
f 34/1/3 32/1/3 33/1/3
f 37/1/3 36/1/3 35/1/3
f 38/1/3 36/1/3 37/1/3
f 41/1/3 40/1/3 39/1/3
f 41/1/3 39/1/3 38/1/3
f 42/1/3 40/1/3 41/1/3
f 43/1/3 40/1/3 42/1/3
f 44/1/3 40/1/3 43/1/3
f 45/1/4 46/1/4 47/1/4
f 47/1/4 46/1/4 48/1/4
f 49/1/4 50/1/4 51/1/4
f 48/1/4 49/1/4 51/1/4
f 51/1/4 50/1/4 52/1/4
f 52/1/4 50/1/4 53/1/4
f 53/1/4 50/1/4 54/1/4
f 55/1/4 56/1/4 57/1/4
f 57/1/4 56/1/4 58/1/4
f 61/1/5 60/1/5 59/1/5
f 62/1/5 60/1/5 61/1/5
f 65/1/5 64/1/5 63/1/5
f 66/1/5 64/1/5 65/1/5
f 69/1/5 67/1/5 66/1/5
f 70/1/5 67/1/5 69/1/5
f 71/1/5 69/1/5 68/1/5
f 72/1/5 69/1/5 71/1/5
f 75/1/5 74/1/5 73/1/5
f 76/1/5 74/1/5 75/1/5
f 77/1/6 78/1/6 79/1/6
f 77/1/6 79/1/6 80/1/6
f 77/1/6 80/1/6 81/1/6
f 81/1/6 80/1/6 82/1/6
f 83/1/6 84/1/6 85/1/6
f 85/1/6 84/1/6 86/1/6
